<?xml version="1.0" standalone="no"?>
<!DOCTYPE svg PUBLIC "-//W3C//DTD SVG 20010904//EN"
 "http://www.w3.org/TR/2001/REC-SVG-20010904/DTD/svg10.dtd">
<svg version="1.0" xmlns="http://www.w3.org/2000/svg"
 width="4094.000000pt" height="4733.000000pt" viewBox="0 0 4094.000000 4733.000000"
 preserveAspectRatio="xMidYMid meet">

<g transform="translate(0.000000,4733.000000) scale(0.100000,-0.100000)"
fill="#000000" stroke="none">
<path d="M14840 47309 c-1114 -94 -2124 -513 -2956 -1226 -149 -127 -440 -422
-565 -573 -499 -600 -852 -1320 -1010 -2060 -17 -80 -975 -5489 -2128 -12020
-1810 -10246 -2100 -11875 -2114 -11874 -34 3 -193 120 -281 208 -160 159
-269 351 -329 573 l-31 118 -4 435 c-4 477 2 556 53 720 39 125 115 273 192
374 38 48 71 93 75 100 6 8 788 5292 788 5321 0 10 -2747 5 -2876 -5 -785 -61
-1475 -338 -2119 -849 -158 -126 -464 -432 -599 -601 -110 -138 -297 -411
-378 -555 -314 -554 -494 -1158 -538 -1810 -8 -115 -10 -2960 -8 -9990 4
-9208 5 -9838 21 -9960 69 -525 187 -934 391 -1360 267 -555 656 -1049 1120
-1422 591 -474 1273 -757 2016 -835 185 -19 33646 -19 33825 0 248 27 498 76
705 139 864 261 1624 829 2137 1598 416 623 652 1321 703 2080 6 98 10 2903
10 8125 0 5222 -4 8027 -10 8125 -69 1033 -491 1975 -1204 2691 -163 163 -437
396 -450 383 -2 -2 -180 -616 -396 -1364 -215 -748 -395 -1362 -400 -1365 -5
-3 -20 -48 -34 -100 -102 -403 -428 -748 -822 -869 -37 -12 -68 -20 -69 -19
-2 2 703 3999 1566 8883 1790 10137 1664 9419 1684 9593 52 451 36 962 -45
1412 -355 1972 -1888 3584 -3880 4079 -147 37 -3091 584 -10440 1940 -5629
1039 -10277 1897 -10327 1906 -258 44 -421 57 -798 60 -203 2 -417 -1 -475 -6z
m855 -2263 c170 -27 10915 -2013 10920 -2018 3 -3 -933 -5318 -2080 -11812
-1147 -6494 -2085 -11809 -2085 -11812 0 -2 -1591 -4 -3535 -4 -3153 0 -3535
2 -3535 15 0 9 394 2245 875 4970 481 2726 875 4963 875 4973 0 15 -136 42
-1021 205 -561 104 -1024 186 -1027 182 -4 -4 -1827 -10299 -1832 -10342 0 -2
-1087 -3 -2416 -3 l-2416 0 6 33 c3 17 937 5310 2076 11760 1139 6451 2084
11779 2100 11840 120 465 352 870 695 1213 152 152 250 233 433 354 355 237
803 403 1212 449 52 6 109 13 125 15 75 10 535 -3 630 -18z m19327 -3566 c656
-121 1249 -234 1317 -251 528 -131 997 -401 1382 -796 426 -437 688 -970 775
-1578 22 -147 25 -505 6 -645 -13 -96 -3309 -18774 -3317 -18797 -3 -10 -542
-13 -2649 -13 -1455 0 -2647 3 -2649 8 -4 5 3923 22264 3932 22290 2 4 -17 7
1203 -218z"/>
</g>
</svg>
