<?xml version="1.0" standalone="no"?>
<!DOCTYPE svg PUBLIC "-//W3C//DTD SVG 20010904//EN"
 "http://www.w3.org/TR/2001/REC-SVG-20010904/DTD/svg10.dtd">
<svg version="1.0" xmlns="http://www.w3.org/2000/svg"
 width="4699.000000pt" height="4752.000000pt" viewBox="0 0 4699.000000 4752.000000"
 preserveAspectRatio="xMidYMid meet">

<g transform="translate(0.000000,4752.000000) scale(0.100000,-0.100000)"
fill="#000000" stroke="none">
<path d="M22820 47504 c-388 -15 -638 -27 -895 -45 -3881 -259 -7614 -1481
-10905 -3569 -1998 -1267 -3824 -2858 -5360 -4670 -1842 -2172 -3267 -4628
-4234 -7298 -776 -2141 -1241 -4393 -1381 -6677 -53 -872 -59 -1889 -14 -2730
150 -2865 789 -5616 1911 -8229 1390 -3237 3499 -6141 6158 -8475 2749 -2414
5999 -4143 9513 -5060 3837 -1002 7927 -1002 11764 0 4530 1182 8611 3715
11726 7277 3420 3911 5461 8820 5826 14012 105 1488 75 2954 -90 4420 -385
3429 -1497 6707 -3273 9650 -1236 2050 -2776 3903 -4565 5493 -2157 1918
-4641 3420 -7316 4425 -2152 808 -4400 1291 -6695 1437 -508 32 -664 36 -1365
39 -396 2 -758 2 -805 0z m-11215 -8725 c111 -11 21927 -3507 22095 -3540
1087 -218 1949 -1199 2094 -2384 23 -189 29 -395 17 -560 -6 -82 -65 -537
-131 -1010 -66 -473 -120 -864 -120 -868 0 -4 -322 -7 -715 -7 l-716 0 6 33
c3 17 64 455 137 972 118 851 131 953 130 1080 0 266 -73 512 -215 727 -187
285 -456 470 -772 532 -44 9 -4994 804 -11000 1768 l-10920 1752 -185 1 c-211
0 -314 -15 -495 -72 -445 -140 -830 -479 -1046 -919 -70 -143 -131 -325 -160
-473 -18 -93 -239 -1653 -235 -1658 1 -1 5244 -843 11652 -1870 l11650 -1868
-9221 -5 c-8440 -5 -9230 -7 -9335 -22 -274 -39 -461 -80 -666 -147 -416 -135
-778 -332 -1134 -615 -155 -123 -457 -425 -570 -569 -74 -95 -88 -108 -110
-104 -101 20 -2922 469 -2924 466 -8 -9 -998 -7144 -1007 -7254 -24 -315 49
-679 196 -980 236 -486 665 -838 1160 -955 63 -15 1750 -290 1778 -290 4 0 7
-344 7 -765 0 -605 -3 -765 -12 -765 -52 0 -1983 318 -2093 345 -420 101 -803
288 -1165 569 -119 92 -405 372 -499 488 -297 370 -522 800 -649 1244 -129
449 -169 936 -116 1389 27 233 1884 13542 1905 13650 102 547 352 1094 694
1520 99 123 311 343 425 440 653 554 1442 806 2265 724z m25320 -8932 c318
-56 589 -149 838 -289 770 -431 1282 -1218 1399 -2148 11 -86 13 -1424 13
-7410 0 -6984 -1 -7311 -18 -7445 -56 -435 -160 -781 -347 -1160 -330 -670
-833 -1177 -1482 -1495 -325 -160 -671 -258 -1028 -290 -80 -8 -3461 -10
-11105 -8 l-10990 3 -137 23 c-648 107 -1204 388 -1675 845 -554 538 -888
1213 -1010 2042 -17 114 -18 470 -18 7220 0 6750 1 7106 18 7220 102 691 335
1238 746 1755 98 123 359 384 484 484 477 380 1033 609 1612 665 50 4 5127 8
11345 7 10691 -1 11260 -2 11355 -19z"/>
<path d="M14345 28349 c-731 -76 -1348 -642 -1524 -1396 -49 -212 -51 -241
-51 -1161 l0 -862 12498 2 12497 3 0 1145 c0 1060 -1 1152 -18 1233 -106 521
-454 896 -947 1020 l-85 22 -11145 1 c-6130 1 -11181 -2 -11225 -7z"/>
<path d="M12770 16483 c0 -3959 -2 -3737 51 -3966 151 -646 633 -1170 1234
-1341 50 -14 128 -33 175 -43 80 -16 679 -17 10970 -20 7456 -3 10916 0 10983
7 444 47 845 260 1129 600 231 276 364 565 435 950 17 89 18 309 20 3788 l3
3692 -12500 0 -12500 0 0 -3667z m4300 832 c249 -37 527 -123 738 -229 l92
-46 71 35 c240 121 517 205 814 247 138 19 504 16 650 -6 1064 -160 1923 -970
2179 -2056 52 -221 69 -376 70 -640 1 -259 -8 -359 -50 -570 -51 -256 -116
-445 -239 -695 -265 -539 -671 -951 -1195 -1214 -235 -117 -439 -184 -707
-232 -168 -30 -529 -38 -703 -15 -292 39 -524 107 -792 233 l-98 46 -119 -56
c-208 -100 -411 -164 -658 -208 -168 -30 -529 -38 -703 -15 -584 77 -1083 325
-1500 745 -327 329 -564 735 -696 1193 -141 491 -140 1054 2 1558 292 1033
1177 1814 2184 1929 52 6 111 13 130 15 79 9 422 -3 530 -19z m6598 -2054
c104 -22 267 -76 278 -92 5 -8 -62 -205 -76 -222 -3 -4 -42 6 -86 22 -131 48
-224 64 -374 64 -115 1 -144 -2 -200 -22 -169 -59 -274 -180 -336 -386 -35
-120 -45 -357 -20 -478 32 -156 107 -300 199 -383 104 -94 188 -118 376 -112
155 6 262 29 378 83 l72 33 26 -86 c14 -48 30 -100 35 -116 6 -16 10 -32 10
-37 0 -9 -129 -60 -210 -83 -163 -46 -461 -62 -594 -32 -404 94 -642 577 -560
1135 33 224 108 384 244 521 119 120 244 183 415 210 93 14 306 5 423 -19z
m8402 19 c111 -13 166 -25 276 -61 138 -45 133 -36 89 -160 -21 -57 -41 -107
-44 -111 -3 -4 -43 6 -87 22 -135 47 -226 63 -374 64 -121 0 -143 -3 -207 -26
-168 -60 -276 -191 -335 -405 -18 -66 -22 -106 -22 -258 -1 -207 14 -278 84
-414 74 -141 166 -224 294 -263 60 -18 85 -20 210 -15 158 6 280 34 385 87
l60 30 30 -98 c49 -160 49 -146 -6 -170 -161 -68 -343 -102 -553 -103 -99 0
-164 5 -205 16 -280 72 -482 314 -552 662 -26 130 -24 414 4 543 42 193 115
335 237 455 177 175 409 242 716 205z m1698 -918 c193 -510 352 -931 352 -935
0 -4 -64 -6 -142 -5 l-142 3 -66 180 c-37 99 -86 233 -109 298 l-43 117 -317
0 -316 0 -107 -298 -106 -297 -142 -3 c-133 -2 -142 -1 -137 15 3 14 650 1708
698 1831 8 21 14 22 116 22 l108 0 353 -928z m-8888 888 c287 -83 434 -292
402 -568 -17 -147 -79 -258 -189 -341 -52 -39 -52 -39 -31 -57 36 -33 107
-140 137 -206 48 -106 92 -286 130 -535 l18 -123 -131 0 -131 0 -18 118 c-59
381 -172 609 -325 652 -20 5 -101 10 -179 10 l-143 0 0 -390 0 -390 -135 0
-135 0 0 904 0 904 23 5 c23 6 205 33 267 41 19 2 109 3 200 1 133 -2 179 -7
240 -25z m2703 1 c252 -67 435 -250 510 -512 37 -127 51 -259 44 -428 -12
-304 -92 -518 -252 -676 -112 -111 -229 -171 -405 -207 -84 -18 -118 -19 -300
-14 -113 4 -250 12 -305 19 l-100 12 -3 892 -2 892 46 7 c314 47 625 53 767
15z m7367 4 c146 -36 296 -138 357 -242 60 -104 82 -285 49 -409 -29 -109
-113 -225 -205 -285 l-24 -15 32 -34 c123 -132 188 -308 246 -660 14 -85 25
-162 25 -172 0 -16 -12 -18 -130 -18 -73 0 -130 4 -130 9 0 5 -11 74 -24 153
-47 270 -112 441 -206 535 -72 73 -109 83 -292 83 l-148 0 0 -390 0 -390 -130
0 -130 0 0 904 0 904 23 5 c23 6 204 33 267 41 80 9 357 -3 420 -19z m1475 -4
c257 -69 426 -233 508 -496 40 -128 50 -226 44 -433 -4 -157 -9 -203 -31 -287
-87 -337 -312 -554 -631 -610 -113 -19 -332 -18 -540 3 l-160 17 -3 892 -2
891 37 6 c21 3 101 13 178 21 77 8 156 17 175 19 19 2 105 3 190 1 119 -2 174
-8 235 -24z m-9875 -116 l0 -125 -380 0 -380 0 0 -245 0 -245 340 0 340 0 0
-125 0 -125 -340 0 -340 0 0 -300 0 -300 380 0 380 0 0 -125 0 -125 -515 0
-515 0 0 920 0 920 515 0 515 0 0 -125z m2070 -795 l0 -920 -130 0 -130 0 0
920 0 920 130 0 130 0 0 -920z m1630 795 l0 -125 -305 0 -305 0 0 -795 0 -795
-130 0 -130 0 0 795 0 795 -305 0 -305 0 0 125 0 125 740 0 740 0 0 -125z"/>
<path d="M18905 16839 c-126 -12 -285 -44 -406 -80 -57 -17 -107 -33 -112 -36
-4 -3 56 -71 135 -151 230 -236 369 -432 513 -727 207 -423 296 -842 282
-1325 -20 -662 -251 -1257 -681 -1757 -53 -62 -133 -145 -176 -185 -44 -40
-80 -76 -80 -79 0 -7 181 -63 273 -83 568 -129 1199 12 1679 375 108 82 302
272 388 379 255 320 421 712 482 1135 20 138 17 504 -5 640 -68 417 -226 784
-474 1098 -78 99 -272 291 -368 364 -300 227 -623 366 -971 418 -128 19 -364
26 -479 14z"/>
<path d="M33231 14703 c-39 -114 -88 -256 -109 -315 -20 -58 -34 -109 -31
-112 3 -4 101 -5 216 -4 l210 3 -102 312 c-55 172 -104 315 -107 318 -3 3 -38
-88 -77 -202z"/>
<path d="M24478 15023 l-58 -4 0 -291 0 -291 178 6 c140 5 191 10 245 27 123
38 187 130 187 265 0 91 -23 147 -81 199 -88 79 -221 104 -471 89z"/>
<path d="M27170 15023 c-19 -1 -59 -6 -87 -9 l-53 -5 0 -669 c0 -600 2 -668
16 -674 35 -13 349 -6 409 9 139 36 258 128 322 250 75 142 111 360 93 564
-22 245 -114 410 -273 484 -99 47 -262 66 -427 50z"/>
<path d="M34557 15023 l-57 -4 2 -287 3 -287 165 1 c191 1 257 12 331 57 98
58 142 194 104 322 -46 159 -211 219 -548 198z"/>
<path d="M36010 15024 c-19 -2 -59 -7 -87 -10 l-53 -5 0 -669 c0 -600 2 -668
16 -674 33 -13 348 -6 412 9 178 42 308 171 371 369 74 231 64 532 -23 723
-29 62 -113 154 -174 190 -80 47 -156 65 -297 68 -71 2 -146 1 -165 -1z"/>
</g>
</svg>
