<?xml version="1.0" standalone="no"?>
<!DOCTYPE svg PUBLIC "-//W3C//DTD SVG 20010904//EN"
 "http://www.w3.org/TR/2001/REC-SVG-20010904/DTD/svg10.dtd">
<svg version="1.0" xmlns="http://www.w3.org/2000/svg"
 width="4689.000000pt" height="3732.000000pt" viewBox="0 0 4689.000000 3732.000000"
 preserveAspectRatio="xMidYMid meet">

<g transform="translate(0.000000,3732.000000) scale(0.100000,-0.100000)"
fill="#000000" stroke="none">
<path d="M6225 37294 c-1589 -157 -2962 -1228 -3510 -2738 -66 -185 -119 -372
-159 -568 -34 -162 -2511 -16819 -2536 -17048 -31 -287 -22 -685 21 -1000 243
-1748 1574 -3175 3289 -3525 69 -14 694 -110 1390 -215 696 -104 1277 -192
1293 -195 l27 -5 0 954 0 954 -32 6 c-18 3 -530 80 -1138 171 -608 91 -1136
173 -1175 181 -287 63 -556 177 -795 336 -260 174 -527 453 -689 721 -243 403
-369 915 -332 1353 12 149 1321 8975 1332 8988 5 6 802 -110 1954 -284 l1945
-293 23 29 c106 136 396 438 558 580 473 416 1024 738 1611 939 366 126 686
195 1133 247 88 10 2586 13 12305 18 l12194 5 -15423 2322 c-8482 1276 -15424
2323 -15427 2325 -4 4 275 1897 296 2008 153 808 750 1488 1535 1749 281 93
593 134 855 113 125 -10 28853 -4328 29093 -4373 215 -40 447 -137 622 -260
115 -81 302 -269 382 -382 210 -299 321 -691 293 -1037 -7 -82 -331 -2298
-356 -2437 l-6 -33 948 0 949 0 155 1043 c85 573 160 1089 167 1147 60 520
-11 1106 -195 1600 -178 477 -447 895 -812 1261 -480 482 -1076 806 -1730 939
-104 22 -28598 4316 -29125 4390 -232 32 -675 39 -930 14z"/>
<path d="M10430 25963 c-840 -58 -1601 -399 -2209 -988 -689 -669 -1088 -1550
-1151 -2540 -14 -221 -14 -18679 0 -18900 53 -839 342 -1586 862 -2227 114
-141 369 -396 509 -511 528 -430 1123 -685 1804 -774 135 -17 747 -18 16725
-18 13639 0 16605 2 16695 13 803 96 1492 423 2064 977 685 665 1083 1535
1151 2515 14 200 14 18750 0 18950 -65 941 -437 1785 -1075 2439 -342 351
-724 614 -1160 799 -291 124 -550 193 -930 250 -102 15 -1377 16 -16675 17
-9111 1 -16585 0 -16610 -2z m3280 -3683 c733 -42 1395 -186 2020 -440 58 -24
107 -44 109 -46 4 -3 -370 -945 -380 -958 -5 -5 -75 18 -161 52 -433 173 -846
271 -1383 328 -234 25 -812 26 -985 1 -796 -113 -1328 -493 -1686 -1202 -187
-372 -292 -770 -334 -1270 -13 -156 -13 -598 0 -745 55 -611 258 -1155 601
-1610 363 -481 816 -744 1414 -821 125 -16 565 -16 770 0 644 51 1178 185
1671 421 l141 67 162 -497 c88 -273 161 -501 161 -507 0 -6 -60 -35 -133 -66
-438 -184 -898 -312 -1412 -391 -598 -93 -1306 -117 -1735 -61 -688 90 -1278
375 -1748 844 -729 726 -1102 1747 -1102 3011 1 1251 376 2271 1091 2965 580
563 1330 872 2249 928 128 8 508 6 670 -3z m5410 -30 c836 -52 1488 -282 1965
-692 360 -311 578 -715 640 -1191 19 -151 19 -426 0 -587 -58 -476 -263 -885
-596 -1192 -107 -99 -254 -210 -367 -277 -48 -28 -93 -56 -101 -60 -11 -7 18
-41 123 -142 240 -232 393 -444 551 -764 173 -350 292 -726 431 -1365 74 -337
202 -1069 230 -1312 l7 -58 -591 0 -590 0 -7 53 c-164 1301 -467 2216 -899
2709 -180 206 -388 342 -624 406 l-97 26 -652 4 -653 3 -2 -1598 -3 -1598
-587 -3 -588 -2 0 3714 c0 3529 1 3715 18 3720 36 11 566 96 752 120 326 43
668 74 995 89 157 8 497 6 645 -3z m11960 0 c1099 -68 1928 -439 2497 -1119
440 -527 684 -1172 775 -2051 21 -199 17 -911 -5 -1124 -143 -1344 -679 -2291
-1617 -2856 -590 -356 -1391 -550 -2276 -550 -384 0 -1099 51 -1916 138 l-253
27 -3 3668 c-2 3018 0 3667 11 3667 7 0 152 16 323 35 653 73 1289 133 1654
155 96 6 198 12 225 13 125 8 435 6 585 -3z m-3742 -592 l-3 -523 -1687 -3
-1688 -2 0 -1005 0 -1005 1505 0 1505 0 -2 -522 -3 -523 -1502 -3 -1503 -2 0
-1205 0 -1205 1690 0 1690 0 -2 -522 -3 -523 -2280 0 -2280 0 -3 3783 -2 3782
2285 0 2285 0 -2 -522z m9172 -3263 l0 -3785 -590 0 -590 0 0 3785 0 3785 590
0 590 0 0 -3785z m7178 3263 l-3 -523 -1337 -3 -1338 -2 0 -3260 0 -3260 -590
0 -590 0 0 3260 0 3260 -1350 0 -1350 0 0 525 0 525 3280 0 3280 0 -2 -522z
m-30133 -8818 c586 -27 1084 -109 1604 -265 229 -68 611 -213 611 -232 0 -9
-372 -947 -379 -955 -3 -4 -60 16 -126 43 -512 213 -1069 329 -1728 361 -848
40 -1443 -141 -1896 -577 -121 -117 -203 -216 -306 -370 -336 -503 -505 -1148
-505 -1925 0 -686 152 -1257 467 -1761 377 -602 854 -928 1500 -1026 162 -25
679 -24 933 1 608 59 1100 189 1569 412 74 35 138 61 141 57 6 -7 190 -567
295 -900 l33 -101 -112 -48 c-665 -284 -1392 -439 -2276 -484 -628 -32 -1054
13 -1488 156 -456 149 -827 378 -1167 719 -384 385 -668 853 -850 1400 -169
508 -239 971 -239 1590 0 430 27 723 99 1081 251 1238 972 2150 2030 2567 523
206 1095 288 1790 257z m7877 -3650 c823 -2010 1531 -3737 1572 -3838 l75
-182 -646 2 -645 3 -483 1225 -482 1225 -1396 3 c-1110 2 -1396 0 -1400 -10
-3 -7 -215 -555 -472 -1218 -257 -663 -470 -1211 -472 -1217 -4 -10 -141 -13
-640 -13 -600 0 -635 1 -630 18 6 21 3099 7537 3132 7610 l24 52 483 -2 483
-3 1497 -3655z m4463 3620 c807 -38 1440 -232 1919 -589 452 -337 705 -768
777 -1321 15 -120 15 -415 0 -542 -81 -656 -404 -1151 -978 -1497 l-102 -62
163 -162 c394 -394 619 -816 821 -1548 114 -411 236 -1015 330 -1634 19 -126
37 -242 40 -257 l5 -28 -593 0 -593 0 -23 173 c-138 1045 -389 1871 -720 2369
-234 351 -494 551 -819 630 -83 20 -118 21 -729 25 l-643 4 0 -1600 0 -1601
-590 0 -590 0 0 3715 c0 2043 3 3715 8 3715 4 0 97 16 207 35 537 94 1104 157
1564 174 291 11 318 11 546 1z m6446 0 c1204 -54 2070 -446 2664 -1205 515
-658 767 -1603 725 -2722 -46 -1209 -402 -2137 -1071 -2788 -356 -347 -749
-582 -1257 -751 -720 -241 -1424 -286 -2732 -174 -211 18 -834 80 -975 96
l-55 7 0 3663 0 3664 23 5 c65 15 1127 124 1547 159 327 28 579 43 865 54 28
1 147 -3 266 -8z m6894 -2848 c232 -42 437 -105 631 -197 l111 -52 54 28 c170
88 450 178 686 221 112 20 160 23 388 23 228 0 276 -3 388 -23 534 -96 975
-327 1352 -706 392 -395 644 -913 721 -1486 21 -151 23 -469 5 -615 -76 -609
-335 -1135 -767 -1555 -383 -372 -843 -599 -1373 -677 -144 -21 -483 -23 -621
-4 -263 36 -508 108 -739 217 l-98 46 -74 -37 c-211 -107 -485 -188 -764 -227
-135 -19 -475 -16 -615 5 -635 97 -1187 413 -1588 910 -638 789 -746 1911
-272 2815 387 737 1099 1231 1920 1331 128 16 528 5 655 -17z"/>
<path d="M18135 21179 c-77 -4 -164 -11 -192 -14 l-53 -6 0 -1165 0 -1165 708
4 c750 4 783 6 1032 57 261 54 489 161 647 304 159 144 268 364 303 611 15
106 12 340 -5 441 -95 551 -528 850 -1345 929 -160 16 -847 18 -1095 4z"/>
<path d="M30315 21198 c-152 -8 -703 -53 -801 -64 l-54 -7 0 -2743 c0 -2603 1
-2743 18 -2748 95 -28 1343 -43 1542 -18 164 20 319 50 457 88 799 219 1344
826 1577 1759 170 683 163 1599 -19 2223 -183 632 -555 1070 -1107 1305 -420
180 -929 245 -1613 205z"/>
<path d="M18962 10013 c-266 -714 -485 -1308 -488 -1320 l-6 -23 951 0 c609 0
951 3 951 10 0 11 -908 2598 -919 2618 -4 7 -217 -551 -489 -1285z"/>
<path d="M25095 11740 c-77 -4 -186 -10 -242 -15 l-103 -7 0 -1165 0 -1164
728 4 c679 3 735 5 857 24 574 93 902 313 1049 705 76 201 91 532 36 767 -28
117 -112 287 -187 376 -230 274 -636 431 -1228 475 -152 11 -685 11 -910 0z"/>
<path d="M31850 11764 c-153 -7 -530 -34 -782 -56 l-248 -21 0 -2747 0 -2747
83 -6 c249 -19 644 -28 1024 -24 375 4 445 7 568 26 632 98 1095 356 1442 801
165 212 317 508 414 805 260 794 249 1957 -25 2658 -305 782 -920 1208 -1870
1297 -123 11 -478 19 -606 14z"/>
<path d="M38620 9519 c-456 -56 -873 -260 -1195 -585 -304 -306 -499 -686
-581 -1129 -25 -141 -31 -481 -9 -640 82 -609 418 -1147 923 -1476 480 -313
1059 -404 1620 -253 166 44 164 26 20 168 -207 205 -357 407 -483 649 -246
473 -341 1017 -269 1541 81 591 364 1139 794 1539 46 42 81 79 79 81 -12 12
-229 70 -329 87 -132 24 -446 34 -570 18z"/>
</g>
</svg>
